<svg viewBox="0 0 109 109" fill="none" xmlns="http://www.w3.org/2000/svg">
<path d="M103.55 54.5C106.56 54.5 109.028 52.0538 108.728 49.0589C107.809 39.9016 104.582 31.0941 99.3098 23.4786C93 14.3642 84.0609 7.3907 73.6851 3.48843C63.3094 -0.41384 51.9903 -1.0593 41.2382 1.63816C32.2542 3.89203 24.023 8.3902 17.2975 14.6725C15.0979 16.7272 15.3425 20.1936 17.6064 22.1771V22.1771C19.8704 24.1606 23.2935 23.903 25.5438 21.904C30.7702 17.2611 37.0583 13.9246 43.8905 12.2105C52.4922 10.0526 61.5475 10.5689 69.8481 13.6907C78.1487 16.8126 85.3 22.3914 90.3479 29.6828C94.3573 35.4744 96.8882 42.1277 97.7598 49.064C98.1351 52.0505 100.54 54.5 103.55 54.5V54.5Z" fill="#4ADE80"/>
<path d="M49.4893 103.293C49.1818 106.288 46.4963 108.493 43.5478 107.888C34.1654 105.964 25.4217 101.592 18.2257 95.1747C9.66914 87.5438 3.73698 77.4088 1.27324 66.2116C-1.1905 55.0145 -0.0603061 43.3255 4.50301 32.8078C8.34066 23.9626 14.442 16.3247 22.1499 10.6397C24.5723 8.85303 27.9355 9.72762 29.4714 12.3162V12.3162C31.0073 14.9048 30.1278 18.223 27.7509 20.0697C21.9944 24.5419 17.4268 30.4059 14.5024 37.1462C10.8518 45.5604 9.9476 54.9116 11.9186 63.8693C13.8896 72.827 18.6353 80.935 25.4806 87.0397C30.9642 91.9301 37.5713 95.3353 44.6732 96.9782C47.6058 97.6566 49.7968 100.299 49.4893 103.293V103.293Z" fill="#FF3C5F"/>
<path d="M102.451 44.1772C105.394 43.5438 108.322 45.4156 108.658 48.4067C109.549 56.3207 108.696 64.3571 106.133 71.9439C102.987 81.2569 97.38 89.5455 89.9069 95.9319C82.4339 102.318 73.3727 106.564 63.6831 108.221C55.7896 109.57 47.7185 109.16 40.04 107.047C37.1379 106.248 35.7452 103.064 36.8296 100.257V100.257C37.9139 97.4487 41.0653 96.0876 43.9864 96.8134C49.8111 98.2607 55.892 98.4945 61.8465 97.4766C69.5981 96.1515 76.8471 92.7546 82.8255 87.6455C88.804 82.5364 93.2893 75.9055 95.8064 68.4551C97.7399 62.732 98.4567 56.6891 97.935 50.71C97.6733 47.7114 99.5089 44.8107 102.451 44.1772V44.1772Z" fill="#3B82F6"/>
</svg>
