<svg viewBox="0 0 17 18" xmlns="http://www.w3.org/2000/svg">
<g clip-path="url(#clip0_10924_63731)">
<path d="M13.6354 0.5H11.0422H10.625H4.25H3.83279H1.23958C0.559583 0.5 0 1.05958 0 1.73958V14.1354C0 14.8154 0.559583 15.375 1.23958 15.375H6.91333C6.56625 14.6171 6.375 13.7812 6.375 12.8958C6.375 9.57375 9.07375 6.875 12.3958 6.875C13.2812 6.875 14.1171 7.06625 14.875 7.41333V1.73958C14.875 1.05958 14.3154 0.5 13.6354 0.5ZM10.3062 6.8325C10.2354 6.86083 10.1646 6.875 10.0938 6.875C9.95917 6.875 9.83167 6.82542 9.7325 6.73333L7.4375 4.59417L5.1425 6.73333C4.98667 6.875 4.76 6.9175 4.56875 6.8325C4.3775 6.7475 4.25 6.55625 4.25 6.34375V1.5625H10.625V6.34375C10.625 6.55625 10.4975 6.7475 10.3062 6.8325Z" />
<path d="M16.0006 10.0411C15.781 9.76484 15.526 9.50984 15.2498 9.29025C14.4706 8.66692 13.4718 8.2915 12.3952 8.2915C9.85935 8.2915 7.79102 10.3598 7.79102 12.8957C7.79102 13.9723 8.16643 14.9711 8.78977 15.7503C9.00935 16.0265 9.26435 16.2815 9.5406 16.5011C10.3198 17.1244 11.3185 17.4998 12.3952 17.4998C14.931 17.4998 16.9993 15.4315 16.9993 12.8957C16.9993 11.819 16.6239 10.8203 16.0006 10.0411ZM12.3952 16.4373C11.6089 16.4373 10.8864 16.1823 10.2985 15.7432C10.0081 15.5378 9.7531 15.2828 9.54768 14.9923C9.10852 14.4044 8.85352 13.6819 8.85352 12.8957C8.85352 10.9407 10.4402 9.354 12.3952 9.354C13.1814 9.354 13.9039 9.609 14.4918 10.0482C14.7823 10.2536 15.0373 10.5086 15.2427 10.799C15.6818 11.3869 15.9368 12.1094 15.9368 12.8957C15.9368 14.8507 14.3502 16.4373 12.3952 16.4373Z" />
<path d="M16.0018 10.0414L15.2439 10.7993L10.2998 15.7434L9.54185 16.5014C9.2656 16.2818 9.0106 16.0268 8.79102 15.7505L9.54893 14.9926L14.4931 10.0484L15.251 9.29053C15.5273 9.51011 15.7823 9.76511 16.0018 10.0414Z"/>
</g>
<defs>
<clipPath id="clip0_10924_63731">
<rect width="17" height="17" fill="white" transform="translate(0 0.5)"/>
</clipPath>
</defs>
</svg>
