<svg viewBox="0 0 16 16" xmlns="http://www.w3.org/2000/svg">
<path d="M4.27639 6.00293H11.7244C11.8562 6.00296 11.9851 6.04207 12.0947 6.11533C12.2043 6.18858 12.2897 6.29269 12.3402 6.41449C12.3906 6.53629 12.4038 6.67032 12.3781 6.79962C12.3524 6.92892 12.2889 7.0477 12.1957 7.14093L8.47172 10.8649C8.3467 10.9899 8.17716 11.0601 8.00039 11.0601C7.82361 11.0601 7.65407 10.9899 7.52905 10.8649L3.80505 7.14093C3.71185 7.0477 3.64838 6.92892 3.62267 6.79962C3.59695 6.67032 3.61016 6.53629 3.6606 6.41449C3.71105 6.29269 3.79648 6.18858 3.90608 6.11533C4.01569 6.04207 4.14455 6.00296 4.27639 6.00293Z" />
</svg>
