<svg viewBox="0 0 17 18" xmlns="http://www.w3.org/2000/svg">
<path d="M14.1161 3.42374L14.0957 3.40333C12.8682 2.1759 11.236 1.5 9.50005 1.5C7.76406 1.5 6.13189 2.1759 4.90424 3.40333C3.67634 4.631 3 6.26349 3 7.99982C3 9.73627 3.67634 11.3688 4.90436 12.5966L4.92615 12.6184C6.15153 13.8321 7.77508 14.5 9.49957 14.5H9.5143C11.2448 14.4962 12.8719 13.8201 14.0957 12.5966C15.3198 11.3726 15.996 9.74528 16 8.01435C16.0038 6.28377 15.3353 4.65393 14.1161 3.42374ZM9.50173 11.0766C9.24774 11.0766 9.04178 10.8701 9.04178 10.6155C9.04178 10.3609 9.24774 10.1544 9.50173 10.1544C9.75571 10.1544 9.96156 10.3609 9.96156 10.6155C9.96156 10.8701 9.75571 11.0766 9.50173 11.0766ZM10.3518 8.36502C9.97605 8.65783 9.95677 8.85964 9.94875 9.28787C9.94408 9.53939 9.73919 9.74024 9.48915 9.74024C9.48628 9.74024 9.48341 9.74024 9.48041 9.74024C9.22655 9.73543 9.02453 9.52522 9.02932 9.27071C9.03758 8.82387 9.04896 8.21195 9.78888 7.63594C9.78984 7.63522 9.79068 7.6345 9.79164 7.63378C10.3245 7.22523 10.3289 6.7419 10.3276 6.68763C10.3245 6.6599 10.3246 6.65402 10.3273 6.62569C10.3278 6.59519 10.3272 6.32219 10.1515 6.13239C10.0208 5.9912 9.80745 5.91389 9.5173 5.90248C9.14488 5.90368 8.88766 5.99096 8.75258 6.1618C8.56781 6.39542 8.60673 6.7868 8.63739 6.9179C8.73163 7.2394 8.56446 7.44733 8.31419 7.50208C8.06379 7.55682 7.811 7.46402 7.7443 7.13772C7.72155 7.04611 7.53606 6.22483 8.02571 5.59683C8.34448 5.18781 8.8491 4.98047 9.52532 4.98047C9.53071 4.98047 9.53598 4.98059 9.54124 4.98071C10.0974 5.00016 10.5338 5.18132 10.8386 5.51939C11.2395 5.96419 11.2509 6.5138 11.2465 6.65546C11.2511 6.85067 11.2178 7.70017 10.3518 8.36502Z" />
<path d="M4.23612 13.229C4.00945 13.002 3.80592 12.758 3.62678 12.5L1.28353 14.8463C1.1007 15.0294 1 15.2728 1 15.5317C1 15.7906 1.1007 16.0341 1.28353 16.2172C1.4719 16.4057 1.71917 16.5 1.96654 16.5C2.21381 16.5 2.46128 16.4057 2.64955 16.2172L5 13.8638C4.73572 13.6832 4.48602 13.4771 4.25381 13.2468L4.23612 13.229Z" />
</svg>
