<svg viewBox="0 0 16 16" xmlns="http://www.w3.org/2000/svg">
<path d="M4.27639 9.99707H11.7244C11.8562 9.99704 11.9851 9.95793 12.0947 9.88467C12.2043 9.81142 12.2897 9.70731 12.3402 9.58551C12.3906 9.46371 12.4038 9.32968 12.3781 9.20038C12.3524 9.07108 12.2889 8.9523 12.1957 8.85907L8.47172 5.13507C8.3467 5.01009 8.17716 4.93988 8.00039 4.93988C7.82361 4.93988 7.65407 5.01009 7.52905 5.13507L3.80505 8.85907C3.71185 8.9523 3.64838 9.07108 3.62267 9.20038C3.59695 9.32968 3.61016 9.46371 3.6606 9.58551C3.71105 9.70731 3.79648 9.81142 3.90608 9.88467C4.01569 9.95793 4.14455 9.99704 4.27639 9.99707Z" />
</svg>
