<svg viewBox="0 0 20 20" xmlns="http://www.w3.org/2000/svg">
<path d="M10 2.5C5.85917 2.5 2.5 5.85917 2.5 10C2.5 14.1408 5.85917 17.5 10 17.5C14.1408 17.5 17.5 14.1408 17.5 10C17.5 5.85917 14.1408 2.5 10 2.5ZM9.76583 14.375C9.66109 14.3784 9.55673 14.3607 9.45896 14.323C9.36118 14.2853 9.27199 14.2283 9.19669 14.1554C9.12139 14.0825 9.06151 13.9953 9.02061 13.8988C8.97972 13.8023 8.95865 13.6985 8.95865 13.5938C8.95865 13.489 8.97972 13.3852 9.02061 13.2887C9.06151 13.1922 9.12139 13.105 9.19669 13.0321C9.27199 12.9592 9.36118 12.9022 9.45896 12.8645C9.55673 12.8268 9.66109 12.8091 9.76583 12.8125C9.96862 12.8191 10.1609 12.9043 10.302 13.0501C10.4431 13.1959 10.522 13.3909 10.522 13.5938C10.522 13.7966 10.4431 13.9916 10.302 14.1374C10.1609 14.2832 9.96862 14.3684 9.76583 14.375ZM11.0717 10.3908C10.4383 10.8158 10.3517 11.205 10.3517 11.5625C10.3517 11.7076 10.294 11.8467 10.1914 11.9493C10.0888 12.0519 9.94968 12.1096 9.80458 12.1096C9.65949 12.1096 9.52033 12.0519 9.41774 11.9493C9.31514 11.8467 9.2575 11.7076 9.2575 11.5625C9.2575 10.7067 9.65167 10.0258 10.4617 9.48167C11.215 8.97667 11.6408 8.65667 11.6408 7.95167C11.6408 7.47333 11.3675 7.11 10.8008 6.84C10.6675 6.77667 10.3717 6.715 10.0067 6.71917C9.54833 6.725 9.19333 6.835 8.91917 7.055C8.4025 7.47083 8.35917 7.92333 8.35917 7.93C8.35566 8.00179 8.33806 8.07219 8.30735 8.13717C8.27664 8.20215 8.23343 8.26045 8.18019 8.30874C8.12696 8.35703 8.06473 8.39436 7.99706 8.41859C7.9294 8.44283 7.85762 8.4535 7.78583 8.45C7.71404 8.4465 7.64365 8.42889 7.57866 8.39818C7.51368 8.36747 7.45538 8.32427 7.40709 8.27103C7.35881 8.21779 7.32148 8.15556 7.29724 8.0879C7.273 8.02023 7.26233 7.94846 7.26583 7.87667C7.27 7.78167 7.33583 6.92667 8.2325 6.205C8.69917 5.83083 9.29083 5.63667 9.99083 5.6275C10.4867 5.62167 10.9533 5.70583 11.2692 5.855C12.215 6.3025 12.7342 7.04833 12.7342 7.95167C12.7342 9.27333 11.8508 9.86667 11.0717 10.3908Z" />
</svg>
