<svg viewBox="0 0 22 22" xmlns="http://www.w3.org/2000/svg">
<path d="M5.97683 18.3132C5.02458 17.6576 4.2203 16.8363 3.58548 15.8719C3.26286 15.3816 2.60239 15.2444 2.11102 15.568C1.62001 15.8913 1.48381 16.5515 1.80711 17.0425C2.59339 18.2373 3.59031 19.2546 4.76953 20.0666C4.95389 20.1937 5.16422 20.2544 5.37213 20.2544C5.71069 20.2544 6.04333 20.0932 6.2499 19.7935C6.58322 19.3094 6.46125 18.6465 5.97683 18.3132Z" />
<path d="M2.10686 6.43901C2.28706 6.55748 2.48977 6.61397 2.69038 6.61397C3.03691 6.61397 3.3765 6.44523 3.58096 6.13406C4.21545 5.16865 5.01937 4.3467 5.97059 3.69107C6.4543 3.35738 6.57627 2.69446 6.24259 2.21039C5.90856 1.72596 5.24634 1.60466 4.76192 1.93834C3.58372 2.75058 2.58783 3.76903 1.80191 4.96487C1.47897 5.45627 1.61549 6.11638 2.10686 6.43901Z" />
<path d="M1.24851 13.9816C1.31609 13.9816 1.38507 13.975 1.45399 13.9615C2.03094 13.8485 2.40692 13.2896 2.2943 12.7123C2.18483 12.1534 2.12937 11.5767 2.12901 10.9998C2.12901 10.427 2.18411 9.85316 2.29261 9.29488C2.4045 8.71758 2.0275 8.15898 1.45056 8.04672C0.870122 7.93586 0.31394 8.31183 0.202356 8.88877C0.0682586 9.5808 0 10.2911 0 11.0005C0.000359333 11.7143 0.0692853 12.4278 0.204776 13.1212C0.304231 13.6292 0.749533 13.9816 1.24851 13.9816Z" />
<path d="M11 0C10.212 0 9.4247 0.0838787 8.65958 0.249847C8.08505 0.374235 7.71982 0.940793 7.84456 1.51532C7.95234 2.01398 8.39344 2.35496 8.88377 2.35496C8.9583 2.35496 9.03417 2.347 9.11003 2.33039C9.72758 2.19696 10.3631 2.12901 11 2.12901C15.8915 2.12901 19.871 6.1085 19.871 11C19.871 15.8915 15.8915 19.8709 11 19.8709C10.3631 19.8709 9.72758 19.803 9.11004 19.6696C8.53412 19.5445 7.96863 19.9101 7.84456 20.4846C7.71982 21.0592 8.08505 21.6257 8.65958 21.7502C9.4247 21.9161 10.212 22 11 22C17.0655 22 22 17.0655 22 11C22 4.93447 17.0655 0 11 0Z" />
<path d="M8.22066 15.8181C8.38197 15.9134 8.5653 15.9647 8.74864 15.9647C8.93197 15.9647 9.1153 15.9134 9.28395 15.8181L16.0306 11.9241C16.3606 11.7334 16.566 11.3814 16.566 11.0001C16.566 10.6187 16.3606 10.2667 16.0306 10.0761L9.28396 6.18207C8.954 5.99139 8.54333 5.99139 8.22067 6.18207C7.89066 6.37274 7.6853 6.72473 7.6853 7.09873V14.9014C7.6853 15.2754 7.89065 15.6274 8.22066 15.8181Z" />
</svg>
