<svg viewBox="0 0 17 18" xmlns="http://www.w3.org/2000/svg">
<g clip-path="url(#clip0_10924_63742)">
<path d="M12 8.5C9.79437 8.5 8 10.2944 8 12.5C8 14.7056 9.79437 16.5 12 16.5C14.2056 16.5 16 14.7056 16 12.5C16 10.2944 14.2056 8.5 12 8.5ZM14.0157 12.0016L11.8699 14.1477C11.6977 14.3199 11.4159 14.3224 11.2412 14.1477L9.9843 12.8905C9.81067 12.7169 9.81067 12.4354 9.9843 12.2621C10.1576 12.0884 10.4391 12.0884 10.6127 12.2621L11.5556 13.2049L13.3873 11.3732C13.5609 11.1996 13.8424 11.1996 14.0157 11.3732C14.1893 11.5465 14.1893 11.828 14.0157 12.0016Z" />
<path d="M13.6354 0.5H11.0422H10.625H4.25H3.83279H1.23958C0.559583 0.5 0 1.05958 0 1.73958V14.1354C0 14.8154 0.559583 15.375 1.23958 15.375H6.91333C6.56625 14.6171 6.375 13.7812 6.375 12.8958C6.375 9.57375 9.07375 6.875 12.3958 6.875C13.2812 6.875 14.1171 7.06625 14.875 7.41333V1.73958C14.875 1.05958 14.3154 0.5 13.6354 0.5ZM10.3062 6.8325C10.2354 6.86083 10.1646 6.875 10.0938 6.875C9.95917 6.875 9.83167 6.82542 9.7325 6.73333L7.4375 4.59417L5.1425 6.73333C4.98667 6.875 4.76 6.9175 4.56875 6.8325C4.3775 6.7475 4.25 6.55625 4.25 6.34375V1.5625H10.625V6.34375C10.625 6.55625 10.4975 6.7475 10.3062 6.8325Z" />
</g>
<defs>
<clipPath id="clip0_10924_63742">
<rect width="17" height="17" transform="translate(0 0.5)"/>
</clipPath>
</defs>
</svg>
