<svg viewBox="0 0 17 18" xmlns="http://www.w3.org/2000/svg">
<path fill-rule="evenodd" clip-rule="evenodd" d="M12.1191 4.05325C13.593 4.39527 14.1569 5.25713 14.8637 6.44336H12.1191V4.05325ZM3.50552 6.54297C3.79411 6.54297 4.00357 6.68227 4.00357 7.00781C4.00357 7.28239 3.78139 7.50508 3.50695 7.50586H0.498047C0.222954 7.50586 0 7.72894 0 8.00391C0 8.279 0.222954 8.50195 0.498047 8.50195H4.98047C5.25816 8.50195 5.48046 8.72478 5.48046 9C5.48046 9.27509 5.25751 9.49805 4.98241 9.49805H0.498047C0.222954 9.49805 0 9.721 0 9.99609C0 10.2712 0.222954 10.4941 0.498047 10.4941H1.59375V11.9883C1.59375 12.2634 1.8167 12.4863 2.0918 12.4863H3.09295C3.27142 13.3654 4.04819 14.0137 4.96387 14.0137C5.87955 14.0137 6.65632 13.3654 6.83479 12.4863H11.8918C12.0702 13.3654 12.847 14.0137 13.7627 14.0137C14.6784 14.0137 15.4551 13.3654 15.6336 12.4863H16.502C16.777 12.4863 17 12.2634 17 11.9883V9C17 7.53867 15.4586 7.44166 15.4572 7.43945H11.6211C11.346 7.43945 11.123 7.2165 11.123 6.94141V3.95312H2.0918C1.8167 3.95312 1.59375 4.17608 1.59375 4.45117V5.54688H0.996094C0.721001 5.54688 0.498047 5.76983 0.498047 6.04492C0.498047 6.32001 0.721001 6.54297 0.996094 6.54297H3.50552ZM14.4083 11.4588C14.7649 11.8154 14.7649 12.3937 14.4083 12.7503C13.8348 13.3238 12.8496 12.9158 12.8496 12.1045C12.8496 11.2934 13.8348 10.8853 14.4083 11.4588ZM5.60951 11.4588C5.96606 11.8154 5.96606 12.3937 5.60951 12.7503C5.03598 13.3238 4.05078 12.9158 4.05078 12.1045C4.05078 11.2934 5.03598 10.8853 5.60951 11.4588Z" />
</svg>
