<svg viewBox="0 0 14 14" xmlns="http://www.w3.org/2000/svg">
<g clip-path="url(#clip0_11004_52229)">
<mask id="mask0_11004_52229" style="mask-type:luminance" maskUnits="userSpaceOnUse" x="0" y="0" width="14" height="14">
<path d="M0 0H14V14H0V0Z" fill="white"/>
</mask>
<g mask="url(#mask0_11004_52229)">
<path d="M8.74935 0.583008H2.33268C1.69102 0.583008 1.16602 1.10801 1.16602 1.74967V9.33301C1.16602 9.65384 1.42852 9.91634 1.74935 9.91634C2.07018 9.91634 2.33268 9.65384 2.33268 9.33301V2.33301C2.33268 2.01217 2.59518 1.74967 2.91602 1.74967H8.74935C9.07018 1.74967 9.33268 1.48717 9.33268 1.16634C9.33268 0.845508 9.07018 0.583008 8.74935 0.583008ZM11.0827 2.91634H4.66602C4.02435 2.91634 3.49935 3.44134 3.49935 4.08301V12.2497C3.49935 12.8913 4.02435 13.4163 4.66602 13.4163H11.0827C11.7243 13.4163 12.2493 12.8913 12.2493 12.2497V4.08301C12.2493 3.44134 11.7243 2.91634 11.0827 2.91634ZM10.4993 12.2497H5.24935C4.92852 12.2497 4.66602 11.9872 4.66602 11.6663V4.66634C4.66602 4.34551 4.92852 4.08301 5.24935 4.08301H10.4993C10.8202 4.08301 11.0827 4.34551 11.0827 4.66634V11.6663C11.0827 11.9872 10.8202 12.2497 10.4993 12.2497Z" />
</g>
</g>
<defs>
<clipPath id="clip0_11004_52229">
<rect width="14" height="14" fill="white"/>
</clipPath>
</defs>
</svg>
