<svg viewBox="0 0 22 22" xmlns="http://www.w3.org/2000/svg">
<g clip-path="url(#clip0_11174_23825)">
<path d="M9.92578 3.97041L4.09062 8.1083V8.09541H1.17305C0.524219 8.09541 0 8.62393 0 9.26846V12.7017C0 13.3548 0.524219 13.879 1.17305 13.879H4.09062V13.8919L9.92578 18.0298C10.3727 18.3478 10.9914 18.2403 11.3094 17.7935C11.4297 17.6259 11.4941 17.4239 11.4941 17.2177V4.77822C11.4941 4.22822 11.0516 3.78564 10.5016 3.78564C10.2953 3.78564 10.0934 3.8501 9.92578 3.97041Z" />
<path d="M18.203 11.015L19.611 9.60703C19.963 9.25503 19.963 8.68303 19.655 8.28703C19.303 7.93503 18.775 7.89103 18.423 8.24303L16.971 9.69503L15.475 8.28703C15.123 7.93503 14.551 7.93503 14.243 8.33103C13.891 8.68303 13.935 9.29903 14.287 9.65103L15.695 11.059L14.287 12.467C13.935 12.819 13.935 13.391 14.243 13.787C14.419 13.963 14.639 14.051 14.859 14.051C15.079 14.051 15.299 13.963 15.475 13.787L16.927 12.335L18.379 13.787C18.555 13.963 18.775 14.051 18.995 14.051C19.215 14.051 19.479 13.963 19.611 13.787C19.963 13.435 19.919 12.819 19.567 12.467L18.203 11.015Z" />
</g>
<defs>
<clipPath id="clip0_11174_23825">
<rect width="22" height="22" fill="white"/>
</clipPath>
</defs>
</svg>
