<svg viewBox="0 0 22 22" xmlns="http://www.w3.org/2000/svg">
<g clip-path="url(#clip0_11173_22326)">
<path d="M12.1344 8.8042V13.1956C13.1656 13.0237 13.9219 12.13 13.9219 11.0858V10.914C13.9219 9.86982 13.1656 8.97607 12.1344 8.8042Z" />
<path d="M9.92578 3.97041L4.09062 8.1083V8.09541H1.17305C0.524219 8.09541 0 8.62393 0 9.26846V12.7017C0 13.3548 0.524219 13.879 1.17305 13.879H4.09062V13.8919L9.92578 18.0298C10.3727 18.3478 10.9914 18.2403 11.3094 17.7935C11.4297 17.6259 11.4941 17.4239 11.4941 17.2177V4.77822C11.4941 4.22822 11.0516 3.78564 10.5016 3.78564C10.2953 3.78564 10.0934 3.8501 9.92578 3.97041Z" />
<path d="M22.0003 10.8583C21.9488 13.9047 20.9304 16.4055 18.9023 18.4895C18.6058 18.7946 18.2449 18.902 17.8367 18.7774C17.4328 18.6571 17.2007 18.3692 17.1234 17.961C17.0546 17.5915 17.1964 17.2821 17.4542 17.0243C18.0128 16.4614 18.4898 15.8212 18.8722 15.1294C20.5136 12.1946 20.2128 8.39185 18.1288 5.75357C17.9097 5.47857 17.6734 5.21646 17.4328 4.95865C16.9988 4.486 16.9945 3.87584 17.4328 3.45475C17.8367 3.06373 18.4769 3.08521 18.9023 3.5192C20.5953 5.24225 21.6007 7.30045 21.9015 9.69381C21.9617 10.1235 21.9788 10.5618 22.0003 10.8583Z" />
<path d="M17.8832 10.8153C17.8488 12.6888 17.2859 14.154 16.1645 15.3958C15.8723 15.718 15.507 15.8341 15.0902 15.7095C14.682 15.5848 14.4371 15.297 14.3684 14.8759C14.3125 14.5321 14.4371 14.2442 14.6648 13.9864C15.2965 13.2774 15.6789 12.4567 15.782 11.5114C15.9238 10.218 15.5672 9.07508 14.725 8.09109C14.4801 7.8032 14.2996 7.50672 14.3684 7.1157C14.4414 6.7032 14.682 6.41961 15.0816 6.2993C15.4898 6.17039 15.8551 6.27352 16.1473 6.58719C16.9766 7.48524 17.5223 8.53367 17.75 9.7368C17.8273 10.1536 17.8531 10.5833 17.8832 10.8153Z" />
</g>
<defs>
<clipPath id="clip0_11173_22326">
<rect width="22" height="22" fill="white"/>
</clipPath>
</defs>
</svg>
