<svg viewBox="0 0 17 18" xmlns="http://www.w3.org/2000/svg">
<path d="M14.3438 6.34375H10.625V2.625C10.625 2.20231 10.4571 1.79693 10.1582 1.49805C9.85931 1.19916 9.45394 1.03125 9.03125 1.03125H2.65625C2.23356 1.03125 1.82818 1.19916 1.5293 1.49805C1.23041 1.79693 1.0625 2.20231 1.0625 2.625V16.4375C1.0625 16.5784 1.11847 16.7135 1.2181 16.8132C1.31773 16.9128 1.45285 16.9688 1.59375 16.9688H5.04688C5.11732 16.9688 5.18489 16.9408 5.2347 16.891C5.28451 16.8411 5.3125 16.7736 5.3125 16.7031V14.3274C5.3125 14.0412 5.53208 13.7961 5.81825 13.782C5.89002 13.7787 5.96171 13.79 6.029 13.8152C6.09629 13.8404 6.15779 13.8789 6.2098 13.9285C6.26181 13.978 6.30326 14.0376 6.33165 14.1036C6.36004 14.1696 6.37479 14.2407 6.375 14.3125V16.7031C6.375 16.7736 6.40299 16.8411 6.4528 16.891C6.50261 16.9408 6.57018 16.9688 6.64062 16.9688H15.4062C15.5471 16.9688 15.6823 16.9128 15.7819 16.8132C15.8815 16.7135 15.9375 16.5784 15.9375 16.4375V7.9375C15.9375 7.51481 15.7696 7.10943 15.4707 6.81055C15.1718 6.51166 14.7664 6.34375 14.3438 6.34375ZM3.25692 14.8395C3.11715 14.8578 2.97583 14.8199 2.86404 14.734C2.75226 14.6481 2.67917 14.5213 2.66085 14.3816C2.64254 14.2418 2.68049 14.1005 2.76637 13.9887C2.85225 13.8769 2.97902 13.8038 3.11879 13.7855C3.25856 13.7672 3.39988 13.8051 3.51166 13.891C3.62345 13.9769 3.69654 14.1037 3.71485 14.2434C3.73317 14.3832 3.69521 14.5245 3.60933 14.6363C3.52345 14.7481 3.39669 14.8212 3.25692 14.8395ZM3.25692 12.1832C3.18771 12.1923 3.11739 12.1877 3.04999 12.1696C2.98258 12.1515 2.91939 12.1203 2.86404 12.0777C2.80869 12.0352 2.76226 11.9822 2.7274 11.9217C2.69254 11.8613 2.66992 11.7945 2.66085 11.7253C2.65178 11.6561 2.65644 11.5858 2.67454 11.5184C2.69265 11.451 2.72385 11.3878 2.76637 11.3324C2.8089 11.2771 2.86191 11.2307 2.92237 11.1958C2.98284 11.1609 3.04958 11.1383 3.11879 11.1292C3.25856 11.1109 3.39988 11.1489 3.51166 11.2348C3.62345 11.3206 3.69654 11.4474 3.71485 11.5872C3.73317 11.727 3.69521 11.8683 3.60933 11.9801C3.52345 12.0918 3.39669 12.1649 3.25692 12.1832ZM3.25692 9.527C3.18771 9.53607 3.11739 9.53142 3.04999 9.51331C2.98258 9.49521 2.91939 9.464 2.86404 9.42148C2.80869 9.37896 2.76226 9.32595 2.7274 9.26548C2.69254 9.20501 2.66992 9.13827 2.66085 9.06906C2.65178 8.99986 2.65644 8.92954 2.67454 8.86213C2.69265 8.79472 2.72385 8.73154 2.76637 8.67619C2.8089 8.62084 2.86191 8.57441 2.92237 8.53954C2.98284 8.50468 3.04958 8.48207 3.11879 8.473C3.25856 8.45468 3.39988 8.49264 3.51166 8.57852C3.62345 8.6644 3.69654 8.79117 3.71485 8.93094C3.73317 9.07071 3.69521 9.21203 3.60933 9.32381C3.52345 9.43559 3.39669 9.50868 3.25692 9.527ZM3.25692 6.87075C3.18709 6.88125 3.11587 6.87773 3.04742 6.86039C2.97898 6.84305 2.91467 6.81224 2.85827 6.76976C2.80187 6.72728 2.7545 6.67398 2.71893 6.61298C2.68337 6.55198 2.66033 6.4845 2.65114 6.41449C2.64196 6.34447 2.64683 6.27334 2.66546 6.20523C2.6841 6.13712 2.71612 6.07341 2.75966 6.01782C2.8032 5.96223 2.85739 5.91588 2.91905 5.88148C2.98072 5.84708 3.04862 5.82531 3.11879 5.81746C3.25708 5.80198 3.39593 5.84138 3.50548 5.92719C3.61502 6.013 3.68653 6.13836 3.70462 6.27634C3.72272 6.41431 3.68595 6.55387 3.60223 6.66503C3.51851 6.77618 3.39452 6.85005 3.25692 6.87075ZM3.25692 4.2145C3.18709 4.225 3.11587 4.22148 3.04742 4.20414C2.97898 4.1868 2.91467 4.15599 2.85827 4.11351C2.80187 4.07103 2.7545 4.01773 2.71893 3.95673C2.68337 3.89573 2.66033 3.82825 2.65114 3.75824C2.64196 3.68822 2.64683 3.61709 2.66546 3.54898C2.6841 3.48087 2.71612 3.41716 2.75966 3.36157C2.8032 3.30598 2.85739 3.25963 2.91905 3.22523C2.98072 3.19083 3.04862 3.16906 3.11879 3.16121C3.25708 3.14573 3.39593 3.18513 3.50548 3.27094C3.61502 3.35675 3.68653 3.48211 3.70462 3.62009C3.72272 3.75806 3.68595 3.89762 3.60223 4.00878C3.51851 4.11993 3.39452 4.1938 3.25692 4.2145ZM5.91317 12.1832C5.84396 12.1923 5.77364 12.1877 5.70623 12.1696C5.63883 12.1515 5.57564 12.1203 5.52029 12.0777C5.46494 12.0352 5.41851 11.9822 5.38365 11.9217C5.34879 11.8613 5.32617 11.7945 5.3171 11.7253C5.30803 11.6561 5.31269 11.5858 5.33079 11.5184C5.3489 11.451 5.3801 11.3878 5.42262 11.3324C5.46515 11.2771 5.51816 11.2307 5.57862 11.1958C5.63909 11.1609 5.70583 11.1383 5.77504 11.1292C5.91481 11.111 6.05609 11.1491 6.16781 11.235C6.27953 11.321 6.35253 11.4478 6.37075 11.5875C6.38897 11.7273 6.35093 11.8686 6.26498 11.9803C6.17903 12.092 6.05294 12.165 5.91317 12.1832ZM5.91317 9.527C5.84396 9.53607 5.77364 9.53142 5.70623 9.51331C5.63883 9.49521 5.57564 9.464 5.52029 9.42148C5.46494 9.37896 5.41851 9.32595 5.38365 9.26548C5.34879 9.20501 5.32617 9.13827 5.3171 9.06906C5.30803 8.99986 5.31269 8.92954 5.33079 8.86213C5.3489 8.79472 5.3801 8.73154 5.42262 8.67619C5.46515 8.62084 5.51816 8.57441 5.57862 8.53954C5.63909 8.50468 5.70583 8.48207 5.77504 8.473C5.84425 8.46398 5.91455 8.46867 5.98195 8.48682C6.04934 8.50497 6.11249 8.53621 6.16781 8.57877C6.22313 8.62133 6.26952 8.67436 6.30434 8.73485C6.33916 8.79533 6.36173 8.86208 6.37075 8.93129C6.37977 9.0005 6.37508 9.0708 6.35693 9.1382C6.33878 9.20559 6.30754 9.26874 6.26498 9.32406C6.22242 9.37938 6.16939 9.42577 6.1089 9.46059C6.04842 9.49541 5.98237 9.51798 5.91317 9.527ZM5.91317 6.87075C5.84334 6.88125 5.77212 6.87773 5.70367 6.86039C5.63523 6.84305 5.57092 6.81224 5.51452 6.76976C5.45812 6.72728 5.41075 6.67398 5.37519 6.61298C5.33962 6.55198 5.31658 6.4845 5.30739 6.41449C5.29821 6.34447 5.30308 6.27334 5.32171 6.20523C5.34035 6.13712 5.37237 6.07341 5.41591 6.01782C5.45945 5.96223 5.51364 5.91588 5.5753 5.88148C5.63697 5.84708 5.70487 5.82531 5.77504 5.81746C5.91303 5.80268 6.05132 5.84249 6.16034 5.92836C6.26935 6.01423 6.34044 6.13935 6.3584 6.27696C6.37635 6.41457 6.33974 6.55374 6.2564 6.66471C6.17307 6.77568 6.05033 6.84963 5.91317 6.87075ZM5.91317 4.2145C5.84334 4.225 5.77212 4.22148 5.70367 4.20414C5.63523 4.1868 5.57092 4.15599 5.51452 4.11351C5.45812 4.07103 5.41075 4.01773 5.37519 3.95673C5.33962 3.89573 5.31658 3.82825 5.30739 3.75824C5.29821 3.68822 5.30308 3.61709 5.32171 3.54898C5.34035 3.48087 5.37237 3.41716 5.41591 3.36157C5.45945 3.30598 5.51364 3.25963 5.5753 3.22523C5.63697 3.19083 5.70487 3.16906 5.77504 3.16121C5.91303 3.14643 6.05132 3.18624 6.16034 3.27211C6.26935 3.35798 6.34044 3.4831 6.3584 3.62071C6.37635 3.75832 6.33974 3.89749 6.2564 4.00846C6.17307 4.11943 6.05033 4.19338 5.91317 4.2145ZM8.56942 14.8395C8.50021 14.8486 8.42989 14.8439 8.36248 14.8258C8.29508 14.8077 8.23189 14.7765 8.17654 14.734C8.12119 14.6915 8.07476 14.6384 8.0399 14.578C8.00503 14.5175 7.98242 14.4508 7.97335 14.3816C7.96428 14.3124 7.96894 14.242 7.98704 14.1746C8.00515 14.1072 8.03635 14.044 8.07887 13.9887C8.1214 13.9333 8.17441 13.8869 8.23487 13.852C8.29534 13.8172 8.36208 13.7946 8.43129 13.7855C8.57106 13.7673 8.71234 13.8053 8.82406 13.8913C8.93578 13.9772 9.00878 14.104 9.027 14.2438C9.04522 14.3836 9.00718 14.5248 8.92123 14.6366C8.83528 14.7483 8.70919 14.8213 8.56942 14.8395ZM8.56942 12.1832C8.50021 12.1923 8.42989 12.1877 8.36248 12.1696C8.29508 12.1515 8.23189 12.1203 8.17654 12.0777C8.12119 12.0352 8.07476 11.9822 8.0399 11.9217C8.00503 11.8613 7.98242 11.7945 7.97335 11.7253C7.96428 11.6561 7.96894 11.5858 7.98704 11.5184C8.00515 11.451 8.03635 11.3878 8.07887 11.3324C8.1214 11.2771 8.17441 11.2307 8.23487 11.1958C8.29534 11.1609 8.36208 11.1383 8.43129 11.1292C8.57106 11.111 8.71234 11.1491 8.82406 11.235C8.93578 11.321 9.00878 11.4478 9.027 11.5875C9.04522 11.7273 9.00718 11.8686 8.92123 11.9803C8.83528 12.092 8.70919 12.165 8.56942 12.1832ZM8.56942 9.527C8.50021 9.53607 8.42989 9.53142 8.36248 9.51331C8.29508 9.49521 8.23189 9.464 8.17654 9.42148C8.12119 9.37896 8.07476 9.32595 8.0399 9.26548C8.00503 9.20501 7.98242 9.13827 7.97335 9.06906C7.96428 8.99986 7.96894 8.92954 7.98704 8.86213C8.00515 8.79472 8.03635 8.73154 8.07887 8.67619C8.1214 8.62084 8.17441 8.57441 8.23487 8.53954C8.29534 8.50468 8.36208 8.48207 8.43129 8.473C8.5005 8.46398 8.5708 8.46867 8.6382 8.48682C8.70559 8.50497 8.76874 8.53621 8.82406 8.57877C8.87938 8.62133 8.92577 8.67436 8.96059 8.73485C8.99541 8.79533 9.01798 8.86208 9.027 8.93129C9.03602 9.0005 9.03133 9.0708 9.01318 9.1382C8.99503 9.20559 8.96379 9.26874 8.92123 9.32406C8.87867 9.37938 8.82564 9.42577 8.76515 9.46059C8.70467 9.49541 8.63862 9.51798 8.56942 9.527ZM8.56942 6.87075C8.49959 6.88125 8.42837 6.87773 8.35992 6.86039C8.29148 6.84305 8.22717 6.81224 8.17077 6.76976C8.11437 6.72728 8.067 6.67398 8.03143 6.61298C7.99587 6.55198 7.97283 6.4845 7.96364 6.41449C7.95446 6.34447 7.95933 6.27334 7.97796 6.20523C7.9966 6.13712 8.02862 6.07341 8.07216 6.01782C8.1157 5.96223 8.16989 5.91588 8.23155 5.88148C8.29322 5.84708 8.36112 5.82531 8.43129 5.81746C8.56928 5.80268 8.70757 5.84249 8.81659 5.92836C8.9256 6.01423 8.99669 6.13935 9.01465 6.27696C9.0326 6.41457 8.99599 6.55374 8.91265 6.66471C8.82932 6.77568 8.70658 6.84963 8.56942 6.87075ZM8.56942 4.2145C8.49959 4.225 8.42837 4.22148 8.35992 4.20414C8.29148 4.1868 8.22717 4.15599 8.17077 4.11351C8.11437 4.07103 8.067 4.01773 8.03143 3.95673C7.99587 3.89573 7.97283 3.82825 7.96364 3.75824C7.95446 3.68822 7.95933 3.61709 7.97796 3.54898C7.9966 3.48087 8.02862 3.41716 8.07216 3.36157C8.1157 3.30598 8.16989 3.25963 8.23155 3.22523C8.29322 3.19083 8.36112 3.16906 8.43129 3.16121C8.56928 3.14643 8.70757 3.18624 8.81659 3.27211C8.9256 3.35798 8.99669 3.4831 9.01465 3.62071C9.0326 3.75832 8.99599 3.89749 8.91265 4.00846C8.82932 4.11943 8.70658 4.19338 8.56942 4.2145ZM14.7418 15.9062H10.625V7.40625H14.3438C14.4846 7.40625 14.6198 7.46222 14.7194 7.56185C14.819 7.66148 14.875 7.7966 14.875 7.9375V15.7738C14.8748 15.809 14.8607 15.8427 14.8357 15.8675C14.8108 15.8923 14.777 15.9062 14.7418 15.9062Z" />
<path d="M13.2812 13.7812C13.1404 13.7812 13.0052 13.8372 12.9056 13.9368C12.806 14.0365 12.75 14.1716 12.75 14.3125C12.75 14.4534 12.806 14.5885 12.9056 14.6882C13.0052 14.7878 13.1404 14.8438 13.2812 14.8438C13.4221 14.8438 13.5573 14.7878 13.6569 14.6882C13.7565 14.5885 13.8125 14.4534 13.8125 14.3125C13.8125 14.1716 13.7565 14.0365 13.6569 13.9368C13.5573 13.8372 13.4221 13.7812 13.2812 13.7812Z" />
<path d="M13.2812 11.125C13.1404 11.125 13.0052 11.181 12.9056 11.2806C12.806 11.3802 12.75 11.5154 12.75 11.6562C12.75 11.7971 12.806 11.9323 12.9056 12.0319C13.0052 12.1315 13.1404 12.1875 13.2812 12.1875C13.4221 12.1875 13.5573 12.1315 13.6569 12.0319C13.7565 11.9323 13.8125 11.7971 13.8125 11.6562C13.8125 11.5154 13.7565 11.3802 13.6569 11.2806C13.5573 11.181 13.4221 11.125 13.2812 11.125Z" />
<path d="M13.2812 8.46875C13.1404 8.46875 13.0052 8.52472 12.9056 8.62435C12.806 8.72398 12.75 8.8591 12.75 9C12.75 9.1409 12.806 9.27602 12.9056 9.37565C13.0052 9.47528 13.1404 9.53125 13.2812 9.53125C13.4221 9.53125 13.5573 9.47528 13.6569 9.37565C13.7565 9.27602 13.8125 9.1409 13.8125 9C13.8125 8.8591 13.7565 8.72398 13.6569 8.62435C13.5573 8.52472 13.4221 8.46875 13.2812 8.46875Z" />
<path d="M11.1562 13.7812C11.0154 13.7812 10.8802 13.8372 10.7806 13.9368C10.681 14.0365 10.625 14.1716 10.625 14.3125C10.625 14.4534 10.681 14.5885 10.7806 14.6882C10.8802 14.7878 11.0154 14.8438 11.1562 14.8438C11.2971 14.8438 11.4323 14.7878 11.5319 14.6882C11.6315 14.5885 11.6875 14.4534 11.6875 14.3125C11.6875 14.1716 11.6315 14.0365 11.5319 13.9368C11.4323 13.8372 11.2971 13.7812 11.1562 13.7812Z" />
<path d="M11.1562 11.125C11.0154 11.125 10.8802 11.181 10.7806 11.2806C10.681 11.3802 10.625 11.5154 10.625 11.6562C10.625 11.7971 10.681 11.9323 10.7806 12.0319C10.8802 12.1315 11.0154 12.1875 11.1562 12.1875C11.2971 12.1875 11.4323 12.1315 11.5319 12.0319C11.6315 11.9323 11.6875 11.7971 11.6875 11.6562C11.6875 11.5154 11.6315 11.3802 11.5319 11.2806C11.4323 11.181 11.2971 11.125 11.1562 11.125Z" />
<path d="M11.1562 8.46875C11.0154 8.46875 10.8802 8.52472 10.7806 8.62435C10.681 8.72398 10.625 8.8591 10.625 9C10.625 9.1409 10.681 9.27602 10.7806 9.37565C10.8802 9.47528 11.0154 9.53125 11.1562 9.53125C11.2971 9.53125 11.4323 9.47528 11.5319 9.37565C11.6315 9.27602 11.6875 9.1409 11.6875 9C11.6875 8.8591 11.6315 8.72398 11.5319 8.62435C11.4323 8.52472 11.2971 8.46875 11.1562 8.46875Z" />
</svg>
