<svg viewBox="0 0 24 24" xmlns="http://www.w3.org/2000/svg">
<circle cx="12" cy="12" r="12" />
<path d="M10.6 16H9.4C9.29391 16 9.19217 15.9617 9.11716 15.8935C9.04214 15.8253 9 15.7328 9 15.6364V8.36364C9 8.26719 9.04214 8.1747 9.11716 8.10651C9.19217 8.03831 9.29391 8 9.4 8H10.6C10.7061 8 10.8078 8.03831 10.8828 8.10651C10.9579 8.1747 11 8.26719 11 8.36364V15.6364C11 15.7328 10.9579 15.8253 10.8828 15.8935C10.8078 15.9617 10.7061 16 10.6 16Z" fill="white"/>
<path d="M14.6 16H13.4C13.2939 16 13.1922 15.9617 13.1172 15.8935C13.0421 15.8253 13 15.7328 13 15.6364V8.36364C13 8.26719 13.0421 8.1747 13.1172 8.10651C13.1922 8.03831 13.2939 8 13.4 8H14.6C14.7061 8 14.8078 8.03831 14.8828 8.10651C14.9579 8.1747 15 8.26719 15 8.36364V15.6364C15 15.7328 14.9579 15.8253 14.8828 15.8935C14.8078 15.9617 14.7061 16 14.6 16Z" fill="white"/>
</svg>
