<svg viewBox="0 0 22 22" xmlns="http://www.w3.org/2000/svg">
<path d="M16.5473 6.5981C16.3368 6.5981 16.1271 6.61008 15.9191 6.63407C15.6686 5.5993 15.1182 4.65678 14.324 3.92116C13.3134 2.98519 11.998 2.46973 10.6198 2.46973C8.08423 2.46973 5.92301 4.20118 5.32845 6.59954C2.37887 6.66564 0 9.08569 0 12.0508C0 15.0577 2.44614 17.5038 5.45273 17.5038H8.65229L9.53137 18.7638C9.86603 19.2436 10.4151 19.53 11 19.53C11.5849 19.53 12.134 19.2436 12.4687 18.7638L13.3477 17.5038H16.5473C19.5539 17.5038 22 15.0577 22 12.0508C22 9.0442 19.5539 6.5981 16.5473 6.5981ZM14.1894 14.5939L11.6295 18.2636C11.4859 18.4694 11.2509 18.592 11 18.592C10.7491 18.592 10.5141 18.4694 10.3705 18.2636L7.81056 14.5939C7.647 14.3593 7.62735 14.0533 7.7596 13.7998C7.89186 13.5463 8.15407 13.3873 8.44002 13.3873H9.51628V10.2079C9.51628 9.78406 9.85989 9.44045 10.2837 9.44045H11.7163C12.1401 9.44045 12.4837 9.78406 12.4837 10.2079V13.3873H13.56C13.8459 13.3873 14.1081 13.5463 14.2404 13.7998C14.3727 14.0534 14.353 14.3594 14.1894 14.5939Z" />
</svg>
