<svg viewBox="0 0 30 30" fill="none" xmlns="http://www.w3.org/2000/svg">
<circle cx="15" cy="15" r="15" fill="#4ADE80" fill-opacity="0.2"/>
<g clip-path="url(#clip0_10918_51014)">
<path d="M15.0001 8.56006C11.4161 8.56006 8.56006 11.4161 8.56006 15.0001C8.56006 18.5841 11.4161 21.4401 15.0001 21.4401C18.5841 21.4401 21.4401 18.5841 21.4401 15.0001C21.4401 11.4161 18.5841 8.56006 15.0001 8.56006ZM17.2401 16.6241C17.0721 16.8481 16.6801 16.9041 16.4561 16.6801L14.6641 15.2241C14.5521 15.1121 14.4401 14.9441 14.4401 14.7761V11.6401C14.4401 11.3041 14.7201 11.0801 15.0001 11.0801C15.3361 11.0801 15.5601 11.3041 15.5601 11.6401V14.5521L17.1281 15.8401C17.4081 16.0641 17.4081 16.4001 17.2401 16.6241Z" fill="#4ADE80"/>
</g>
<defs>
<clipPath id="clip0_10918_51014">
<rect width="14" height="14" fill="white" transform="translate(8 8)"/>
</clipPath>
</defs>
</svg>
