<svg viewBox="0 0 30 30" fill="none" xmlns="http://www.w3.org/2000/svg">
<circle cx="15" cy="15" r="15" fill="#4AA3EF" fill-opacity="0.2"/>
<g clip-path="url(#clip0_10918_50983)">
<path d="M12.032 10.2961C12.144 10.1841 12.256 10.1841 12.368 10.1841C12.48 10.1841 12.648 10.2401 12.704 10.2961L13.152 10.6321V8.22412H11.584V10.6321L12.032 10.2961Z" fill="#4AA3EF"/>
<path d="M9.67997 21.6641H15.28C14.384 20.8241 13.768 19.6481 13.768 18.3041C13.768 15.7841 15.84 13.7681 18.304 13.7681C18.64 13.7681 18.976 13.8241 19.312 13.8801V9.73612C19.312 8.89612 18.64 8.22412 17.8 8.22412H14.272V11.8081C14.272 12.0321 14.16 12.2001 13.936 12.3121C13.824 12.4241 13.6 12.4241 13.432 12.2561L12.424 11.4161L11.416 12.2561C11.248 12.3681 11.024 12.4241 10.8 12.3121C10.632 12.2561 10.464 12.0321 10.464 11.8081V8.22412H9.67997C8.83997 8.22412 8.16797 8.89612 8.16797 9.73612V20.2081C8.22397 20.9921 8.89597 21.6641 9.67997 21.6641Z" fill="#4AA3EF"/>
<path d="M18.3598 14.8882C16.4558 14.8882 14.9438 16.4562 14.9438 18.3042C14.9438 20.2082 16.5118 21.7762 18.3598 21.7762C20.2638 21.7762 21.8318 20.2082 21.8318 18.3042C21.7758 16.4002 20.2638 14.8882 18.3598 14.8882ZM19.5918 18.8082H18.9198V19.4802C18.9198 19.7602 18.6398 20.0402 18.3598 20.0402C18.0238 20.0402 17.7998 19.7602 17.7998 19.4802V18.8082H17.1278C16.8478 18.8082 16.5678 18.5282 16.5678 18.2482C16.5678 17.9682 16.8478 17.6882 17.1278 17.6882H17.7998V17.0162C17.7998 16.7362 18.0238 16.4562 18.3598 16.4562C18.6398 16.4562 18.9198 16.7362 18.9198 17.0162V17.6882H19.5918C19.8718 17.6882 20.1518 17.9682 20.1518 18.2482C20.1518 18.5282 19.8718 18.8082 19.5918 18.8082Z" fill="#4AA3EF"/>
</g>
<defs>
<clipPath id="clip0_10918_50983">
<rect width="14" height="14" fill="white" transform="translate(8 8)"/>
</clipPath>
</defs>
</svg>
