<svg viewBox="0 0 30 30" fill="none" xmlns="http://www.w3.org/2000/svg">
<circle cx="15" cy="15" r="15" fill="#4AA3EF" fill-opacity="0.2"/>
<path d="M19.5001 10.5H19.0501V11.175C19.0501 11.796 18.5461 12.3 17.9251 12.3C17.3041 12.3 16.8001 11.796 16.8001 11.175V10.5H13.2001V11.175C13.2001 11.796 12.6961 12.3 12.0751 12.3C11.4541 12.3 10.9501 11.796 10.9501 11.175V10.5H10.5001C10.0028 10.5 9.6001 10.9027 9.6001 11.4V12.75H20.4001V11.4C20.4001 10.9027 19.9973 10.5 19.5001 10.5Z" fill="#4AA3EF"/>
<path d="M11.3999 10.2751V11.1751C11.3999 11.5463 11.7037 11.8501 12.0749 11.8501C12.4462 11.8501 12.7499 11.5463 12.7499 11.1751V10.2751C12.7499 9.90385 12.4462 9.6001 12.0749 9.6001C11.7037 9.6001 11.3999 9.90385 11.3999 10.2751Z" fill="#4AA3EF"/>
<path d="M17.925 9.6001C17.5538 9.6001 17.25 9.90385 17.25 10.2751V11.1751C17.25 11.5463 17.5538 11.8501 17.925 11.8501C18.2963 11.8501 18.6 11.5463 18.6 11.1751V10.2751C18.6 9.90385 18.2963 9.6001 17.925 9.6001Z" fill="#4AA3EF"/>
<path d="M9.6001 19.05C9.6001 19.7947 10.2053 20.4 10.9501 20.4H19.0501C19.7948 20.4 20.4001 19.7947 20.4001 19.05V13.2H9.6001V19.05ZM16.3501 14.955C16.3501 14.8312 16.4513 14.73 16.5751 14.73H17.4751C17.5988 14.73 17.7001 14.8312 17.7001 14.955C17.7001 15.081 17.5988 15.18 17.4751 15.18H17.1601C17.5088 15.6412 17.7001 16.2105 17.7001 16.8C17.7001 18.2895 16.4896 19.5 15.0001 19.5C14.6783 19.5 14.3611 19.4415 14.0596 19.3267C13.9426 19.284 13.8841 19.1535 13.9268 19.0387C13.9718 18.9217 14.1023 18.8632 14.2171 18.906C14.4691 19.0027 14.7323 19.05 15.0001 19.05C16.2398 19.05 17.2501 18.0397 17.2501 16.8C17.2501 16.3072 17.0903 15.8347 16.8001 15.4522V15.855C16.8001 15.981 16.6988 16.08 16.5751 16.08C16.4513 16.08 16.3501 15.981 16.3501 15.855V14.955ZM15.7381 17.385C15.8146 17.484 15.7966 17.6235 15.6976 17.7C15.6571 17.7315 15.6076 17.7472 15.5603 17.7472C15.4928 17.7472 15.4253 17.718 15.3826 17.6595L14.8223 16.9372C14.7908 16.899 14.7751 16.8495 14.7751 16.8V15.45C14.7751 15.3262 14.8763 15.225 15.0001 15.225C15.1238 15.225 15.2251 15.3262 15.2251 15.45V16.7235L15.7381 17.385ZM12.3001 16.8C12.3001 15.3105 13.5106 14.1 15.0001 14.1C15.2656 14.1 15.5311 14.1382 15.7853 14.217C15.9046 14.253 15.9721 14.379 15.9361 14.4982C15.9001 14.6175 15.7741 14.685 15.6548 14.6467C15.4411 14.5837 15.2206 14.55 15.0001 14.55C13.7603 14.55 12.7501 15.5602 12.7501 16.8C12.7501 17.295 12.9076 17.763 13.2001 18.1522V17.745C13.2001 17.619 13.3013 17.52 13.4251 17.52C13.5488 17.52 13.6501 17.619 13.6501 17.745V18.645C13.6501 18.7687 13.5488 18.87 13.4251 18.87H12.5251C12.4013 18.87 12.3001 18.7687 12.3001 18.645C12.3001 18.519 12.4013 18.42 12.5251 18.42H12.8401C12.4891 17.9542 12.3001 17.3917 12.3001 16.8Z" fill="#4AA3EF"/>
</svg>
