<svg viewBox="0 0 30 30" fill="none" xmlns="http://www.w3.org/2000/svg">
<circle cx="15" cy="15" r="15" fill="#4AA3EF" fill-opacity="0.2"/>
<g clip-path="url(#clip0_11110_93124)">
<path d="M15.5344 11.109V10.0114H16.0688C16.364 10.0114 16.6033 9.77205 16.6033 9.47687C16.6033 9.1817 16.364 8.94238 16.0688 8.94238H13.9309C13.6357 8.94238 13.3964 9.1817 13.3964 9.47687C13.3964 9.77205 13.6357 10.0114 13.9309 10.0114H14.4653V11.109C11.965 11.3766 10.0112 13.4987 10.0112 16.0689C10.0112 18.8196 12.2491 21.0576 14.9999 21.0576C17.7505 21.0575 19.9885 18.8196 19.9885 16.0689C19.9885 13.4988 18.0347 11.3765 15.5344 11.109ZM17.3153 16.6057H14.9999C14.7047 16.6057 14.4654 16.3663 14.4654 16.0712V13.7557C14.4654 13.4606 14.7047 13.2213 14.9999 13.2213C15.295 13.2213 15.5344 13.4606 15.5344 13.7557V15.5367H17.3153C17.6105 15.5367 17.8498 15.776 17.8498 16.0712C17.8498 16.3663 17.6105 16.6057 17.3153 16.6057Z" fill="#4AA3EF"/>
<path d="M21.9897 14.6786C21.6184 12.8116 20.5422 11.2009 18.9594 10.1434C18.714 9.97934 18.3821 10.0454 18.2181 10.2908C18.0541 10.5363 18.1201 10.8682 18.3655 11.0322C19.7109 11.9312 20.6256 13.3002 20.9412 14.8872C20.9919 15.1416 21.2151 15.3175 21.4649 15.3175C21.4995 15.3175 21.5345 15.3141 21.5697 15.3071C21.8593 15.2496 22.0472 14.9682 21.9897 14.6786Z" fill="#4AA3EF"/>
<path d="M11.782 10.2908C11.618 10.0454 11.2861 9.97938 11.0406 10.1433C9.4579 11.2009 8.38173 12.8116 8.01037 14.6786C7.95279 14.9681 8.1408 15.2495 8.43035 15.3071C8.46551 15.3141 8.50062 15.3175 8.53515 15.3175C8.78497 15.3175 9.00823 15.1415 9.05882 14.8872C9.3745 13.3001 10.2892 11.9311 11.6346 11.0322C11.88 10.8682 11.946 10.5363 11.782 10.2908Z" fill="#4AA3EF"/>
</g>
<defs>
<clipPath id="clip0_11110_93124">
<rect width="14" height="14" fill="white" transform="translate(8 8)"/>
</clipPath>
</defs>
</svg>
