<svg viewBox="0 0 30 30" fill="none" xmlns="http://www.w3.org/2000/svg">
<circle cx="15" cy="15" r="15" fill="#4AA3EF" fill-opacity="0.2"/>
<g clip-path="url(#clip0_10918_51061)">
<path d="M9.67383 19.3242H14.6074C14.6309 19.324 14.6541 19.3187 14.6752 19.3085C14.6964 19.2983 14.715 19.2836 14.7298 19.2654C14.7446 19.2471 14.7552 19.2259 14.7608 19.2031C14.7664 19.1803 14.7669 19.1565 14.7623 19.1335C14.6323 18.5157 14.6631 17.8748 14.8515 17.2723C15.04 16.6697 15.3799 16.1255 15.8388 15.6919C16.2977 15.2582 16.8601 14.9495 17.4724 14.7953C18.0846 14.6411 18.7262 14.6466 19.3357 14.8112C19.3592 14.8173 19.3837 14.818 19.4074 14.8132C19.4312 14.8084 19.4535 14.7983 19.4727 14.7836C19.492 14.7688 19.5076 14.7499 19.5184 14.7282C19.5292 14.7066 19.5349 14.6827 19.5352 14.6585V9.67383C19.5347 9.29633 19.3846 8.93442 19.1177 8.66749C18.8507 8.40056 18.4888 8.25042 18.1113 8.25H9.67383C9.29633 8.25042 8.93442 8.40056 8.66749 8.66749C8.40056 8.93442 8.25042 9.29633 8.25 9.67383V17.9004C8.25042 18.2779 8.40056 18.6398 8.66749 18.9067C8.93442 19.1737 9.29633 19.3238 9.67383 19.3242ZM12.2051 8.56641H15.5801V11.2191C15.5801 11.2779 15.5636 11.3357 15.5325 11.3857C15.5015 11.4358 15.4571 11.4762 15.4043 11.5023C15.3516 11.5285 15.2926 11.5395 15.2339 11.5339C15.1753 11.5284 15.1194 11.5066 15.0725 11.471L14.0838 10.7209C14.0288 10.6792 13.9616 10.6566 13.8926 10.6566C13.8235 10.6566 13.7564 10.6792 13.7014 10.7209L12.7127 11.471C12.6658 11.5066 12.6098 11.5284 12.5512 11.5339C12.4926 11.5395 12.4336 11.5285 12.3808 11.5023C12.3281 11.4762 12.2837 11.4358 12.2526 11.3857C12.2216 11.3357 12.2051 11.2779 12.2051 11.2191V8.56641ZM9.7793 16.7402C9.7793 16.6563 9.81263 16.5758 9.87197 16.5165C9.93131 16.4572 10.0118 16.4238 10.0957 16.4238H11.9941C12.0781 16.4238 12.1585 16.4572 12.2179 16.5165C12.2772 16.5758 12.3105 16.6563 12.3105 16.7402V17.373C12.3105 17.457 12.2772 17.5374 12.2179 17.5968C12.1585 17.6561 12.0781 17.6895 11.9941 17.6895H10.0957C10.0118 17.6895 9.93131 17.6561 9.87197 17.5968C9.81263 17.5374 9.7793 17.457 9.7793 17.373V16.7402Z" fill="#4AA3EF"/>
<path d="M18.375 15C17.7075 15 17.055 15.1979 16.5 15.5688C15.9449 15.9396 15.5124 16.4667 15.2569 17.0834C15.0015 17.7001 14.9346 18.3787 15.0649 19.0334C15.1951 19.6881 15.5165 20.2895 15.9885 20.7615C16.4605 21.2335 17.0619 21.5549 17.7166 21.6852C18.3713 21.8154 19.0499 21.7485 19.6666 21.4931C20.2833 21.2376 20.8104 20.8051 21.1812 20.25C21.5521 19.695 21.75 19.0425 21.75 18.375C21.749 17.4802 21.3931 16.6223 20.7604 15.9896C20.1277 15.3569 19.2698 15.001 18.375 15ZM19.565 18.8971C19.6091 18.9411 19.644 18.9935 19.6679 19.051C19.6917 19.1086 19.704 19.1703 19.704 19.2327C19.704 19.295 19.6917 19.3567 19.6679 19.4143C19.644 19.4719 19.6091 19.5242 19.565 19.5683C19.5209 19.6123 19.4686 19.6473 19.411 19.6712C19.3534 19.695 19.2917 19.7073 19.2294 19.7073C19.1671 19.7073 19.1054 19.695 19.0478 19.6712C18.9902 19.6473 18.9379 19.6123 18.8938 19.5683L18.3717 19.0462L17.8562 19.5617C17.7672 19.6507 17.6465 19.7007 17.5206 19.7007C17.3947 19.7007 17.274 19.6507 17.185 19.5617C17.096 19.4727 17.046 19.352 17.046 19.2261C17.046 19.1003 17.096 18.9795 17.185 18.8905L17.7005 18.375L17.185 17.8595C17.096 17.7705 17.046 17.6497 17.046 17.5239C17.046 17.398 17.096 17.2773 17.185 17.1883C17.274 17.0993 17.3947 17.0493 17.5206 17.0493C17.6465 17.0493 17.7672 17.0993 17.8562 17.1883L18.3717 17.7038L18.8938 17.1817C18.9379 17.1377 18.9902 17.1027 19.0478 17.0788C19.1054 17.055 19.1671 17.0427 19.2294 17.0427C19.2917 17.0427 19.3534 17.055 19.411 17.0788C19.4686 17.1027 19.5209 17.1377 19.565 17.1817C19.6091 17.2258 19.644 17.2781 19.6679 17.3357C19.6917 17.3933 19.704 17.455 19.704 17.5173C19.704 17.5797 19.6917 17.6414 19.6679 17.699C19.644 17.7565 19.6091 17.8089 19.565 17.8529L19.0429 18.375L19.565 18.8971Z" fill="#4AA3EF"/>
</g>
<defs>
<clipPath id="clip0_10918_51061">
<rect width="13.5" height="13.5" fill="white" transform="translate(8.25 8.25)"/>
</clipPath>
</defs>
</svg>
