<svg viewBox="0 0 30 30" fill="none" xmlns="http://www.w3.org/2000/svg">
<circle cx="15" cy="15" r="15" fill="#4AA3EF" fill-opacity="0.2"/>
<g clip-path="url(#clip0_10918_51044)">
<path d="M19.0781 8.25H17.0188H16.6875H11.625H11.2937H9.23438C8.69438 8.25 8.25 8.69438 8.25 9.23438V19.0781C8.25 19.6181 8.69438 20.0625 9.23438 20.0625H13.74C13.4644 19.4606 13.3125 18.7969 13.3125 18.0938C13.3125 15.4556 15.4556 13.3125 18.0938 13.3125C18.7969 13.3125 19.4606 13.4644 20.0625 13.74V9.23438C20.0625 8.69438 19.6181 8.25 19.0781 8.25ZM16.4344 13.2787C16.3781 13.3012 16.3219 13.3125 16.2656 13.3125C16.1588 13.3125 16.0575 13.2731 15.9787 13.2L14.1562 11.5013L12.3338 13.2C12.21 13.3125 12.03 13.3462 11.8781 13.2787C11.7262 13.2112 11.625 13.0594 11.625 12.8906V9.09375H16.6875V12.8906C16.6875 13.0594 16.5863 13.2112 16.4344 13.2787Z" fill="#4AA3EF"/>
<path d="M20.9569 15.8269C20.7825 15.6075 20.58 15.405 20.3606 15.2306C19.7419 14.7356 18.9488 14.4375 18.0938 14.4375C16.08 14.4375 14.4375 16.08 14.4375 18.0938C14.4375 18.9488 14.7356 19.7419 15.2306 20.3606C15.405 20.58 15.6075 20.7825 15.8269 20.9569C16.4456 21.4519 17.2387 21.75 18.0938 21.75C20.1075 21.75 21.75 20.1075 21.75 18.0938C21.75 17.2387 21.4519 16.4456 20.9569 15.8269ZM18.0938 20.9062C17.4694 20.9062 16.8956 20.7038 16.4288 20.355C16.1981 20.1919 15.9956 19.9894 15.8325 19.7587C15.4837 19.2919 15.2812 18.7181 15.2812 18.0938C15.2812 16.5412 16.5412 15.2812 18.0938 15.2812C18.7181 15.2812 19.2919 15.4837 19.7587 15.8325C19.9894 15.9956 20.1919 16.1981 20.355 16.4288C20.7038 16.8956 20.9062 17.4694 20.9062 18.0938C20.9062 19.6462 19.6462 20.9062 18.0938 20.9062Z" fill="#4AA3EF"/>
<path d="M20.957 15.827L20.3551 16.4288L16.4288 20.3551L15.827 20.957C15.6076 20.7826 15.4051 20.5801 15.2307 20.3607L15.8326 19.7588L19.7588 15.8326L20.3607 15.2307C20.5801 15.4051 20.7826 15.6076 20.957 15.827Z" fill="#4AA3EF"/>
</g>
<defs>
<clipPath id="clip0_10918_51044">
<rect width="13.5" height="13.5" fill="white" transform="translate(8.25 8.25)"/>
</clipPath>
</defs>
</svg>
