<svg viewBox="0 0 30 30" fill="none" xmlns="http://www.w3.org/2000/svg">
<circle cx="15" cy="15" r="15" fill="#4AA3EF" fill-opacity="0.2"/>
<g clip-path="url(#clip0_10918_50968)">
<path d="M13.2731 11.6618H16.3742C16.7568 11.6618 17.0681 11.3505 17.0681 10.9679V9.4468H16.5165C16.3304 8.68484 15.6419 8.11768 14.8236 8.11768C14.0051 8.11768 13.3167 8.68484 13.1305 9.4468H12.5791V10.9679C12.5791 11.3505 12.8904 11.6618 13.2731 11.6618Z" fill="#4AA3EF"/>
<path d="M18.589 9.44678H17.895V10.9678C17.895 11.8066 17.2127 12.489 16.3739 12.489H13.2728C12.434 12.489 11.7517 11.8066 11.7517 10.9678V9.44678H11.0577C10.219 9.44678 9.53662 10.1291 9.53662 10.9678V20.7141C9.53662 21.5529 10.219 22.2353 11.0577 22.2353H18.589C19.4277 22.2353 20.1101 21.5529 20.1101 20.7141V10.9678C20.1101 10.1291 19.4277 9.44678 18.589 9.44678ZM13.3438 19.8696L12.4578 20.7556C12.3771 20.8364 12.2712 20.8768 12.1654 20.8768C12.0595 20.8768 11.9537 20.8364 11.8729 20.7557L11.4298 20.3128C11.2683 20.1513 11.2682 19.8894 11.4297 19.7278C11.5912 19.5663 11.8531 19.5663 12.0146 19.7277L12.1653 19.8783L12.7589 19.2847C12.9204 19.1232 13.1823 19.1232 13.3438 19.2847C13.5053 19.4462 13.5053 19.7081 13.3438 19.8696ZM13.3438 17.2115L12.4578 18.0976C12.3771 18.1783 12.2712 18.2187 12.1654 18.2187C12.0595 18.2187 11.9537 18.1783 11.8729 18.0976L11.4298 17.6547C11.2683 17.4932 11.2682 17.2313 11.4297 17.0698C11.5912 16.9083 11.8531 16.9082 12.0146 17.0697L12.1653 17.2203L12.7589 16.6266C12.9204 16.4651 13.1823 16.4651 13.3438 16.6266C13.5053 16.7881 13.5053 17.05 13.3438 17.2115ZM13.3438 14.5535L12.4578 15.4396C12.3771 15.5203 12.2712 15.5607 12.1654 15.5607C12.0595 15.5607 11.9537 15.5203 11.8729 15.4396L11.4298 14.9966C11.2683 14.8351 11.2683 14.5732 11.4298 14.4117C11.5913 14.2501 11.8531 14.2501 12.0147 14.4116L12.1653 14.5622L12.7589 13.9686C12.9204 13.8071 13.1823 13.8071 13.3438 13.9686C13.5053 14.1301 13.5053 14.392 13.3438 14.5535ZM17.9245 20.8768H14.8235C14.595 20.8768 14.4099 20.6916 14.4099 20.4632C14.4099 20.2348 14.595 20.0496 14.8235 20.0496H17.9244C18.1528 20.0496 18.338 20.2348 18.338 20.4632C18.3381 20.6916 18.1529 20.8768 17.9245 20.8768ZM17.9245 18.2187H14.8235C14.595 18.2187 14.4099 18.0335 14.4099 17.8051C14.4099 17.5767 14.595 17.3915 14.8235 17.3915H17.9244C18.1528 17.3915 18.338 17.5767 18.338 17.8051C18.3381 18.0335 18.1529 18.2187 17.9245 18.2187ZM17.9245 15.5607H14.8235C14.595 15.5607 14.4099 15.3755 14.4099 15.1471C14.4099 14.9187 14.595 14.7335 14.8235 14.7335H17.9244C18.1528 14.7335 18.338 14.9187 18.338 15.1471C18.3381 15.3756 18.1529 15.5607 17.9245 15.5607Z" fill="#4AA3EF"/>
</g>
<defs>
<clipPath id="clip0_10918_50968">
<rect width="14.1176" height="14.1176" fill="white" transform="translate(7.76465 8.11768)"/>
</clipPath>
</defs>
</svg>
