<svg viewBox="0 0 30 30" fill="none" xmlns="http://www.w3.org/2000/svg">
<circle cx="15" cy="15" r="15" fill="#4AA3EF" fill-opacity="0.2"/>
<g clip-path="url(#clip0_10918_51000)">
<path d="M15 8C11.1401 8 8 11.1401 8 15C8 18.8599 11.1401 22 15 22C18.8599 22 22 18.8599 22 15C22 11.1401 18.8599 8 15 8ZM18.5275 14.1279L14.7724 17.8835C14.4711 18.1848 13.9777 18.1891 13.6721 17.8835L11.4725 15.6834C11.1687 15.3796 11.1687 14.887 11.4725 14.5836C11.7759 14.2798 12.2684 14.2798 12.5723 14.5836L14.2222 16.2336L17.4277 13.0281C17.7316 12.7242 18.2241 12.7242 18.5275 13.0281C18.8313 13.3314 18.8313 13.824 18.5275 14.1279Z" fill="#4AA3EF"/>
</g>
<defs>
<clipPath id="clip0_10918_51000">
<rect width="14" height="14" fill="white" transform="translate(8 8)"/>
</clipPath>
</defs>
</svg>
