<svg viewBox="0 0 30 30" fill="none" xmlns="http://www.w3.org/2000/svg">
<circle cx="15" cy="15" r="15" fill="#FF3C5F" fill-opacity="0.2"/>
<g clip-path="url(#clip0_10918_51029)">
<path d="M14.7083 8.58325C11.3249 8.58325 8.58325 11.3249 8.58325 14.7083C8.58325 18.0916 11.3249 20.8333 14.7083 20.8333C14.8541 20.8333 14.997 20.8274 15.1399 20.8158C14.6672 20.1362 14.4147 19.3278 14.4166 18.4999C14.4168 17.417 14.8471 16.3785 15.6128 15.6128C16.3785 14.8471 17.417 14.4168 18.4999 14.4166C19.3278 14.4147 20.1362 14.6672 20.8158 15.1399C20.8274 14.997 20.8333 14.8541 20.8333 14.7083C20.8333 11.3249 18.0916 8.58325 14.7083 8.58325ZM15.2916 14.7083C15.2916 14.863 15.2301 15.0113 15.1207 15.1207C15.0113 15.2301 14.863 15.2916 14.7083 15.2916H12.0833C11.9292 15.2905 11.7819 15.2286 11.6733 15.1193C11.5648 15.0101 11.5039 14.8623 11.5039 14.7083C11.5039 14.5542 11.5648 14.4065 11.6733 14.2972C11.7819 14.1879 11.9292 14.126 12.0833 14.1249H14.1249V10.9166C14.1244 10.8397 14.1391 10.7634 14.1682 10.6921C14.1973 10.6209 14.2401 10.5561 14.2944 10.5015C14.3486 10.4469 14.4131 10.4036 14.4841 10.374C14.5551 10.3445 14.6313 10.3293 14.7083 10.3293C14.7852 10.3293 14.8614 10.3445 14.9324 10.374C15.0035 10.4036 15.0679 10.4469 15.1222 10.5015C15.1764 10.5561 15.2193 10.6209 15.2484 10.6921C15.2774 10.7634 15.2921 10.8397 15.2916 10.9166V14.7083Z" fill="#FF3C5F"/>
<path d="M18.4999 15.5833C17.9231 15.5833 17.3592 15.7543 16.8795 16.0748C16.3999 16.3953 16.026 16.8508 15.8053 17.3838C15.5845 17.9167 15.5268 18.5032 15.6393 19.0689C15.7518 19.6347 16.0296 20.1544 16.4375 20.5623C16.8454 20.9702 17.3651 21.248 17.9309 21.3606C18.4967 21.4731 19.0831 21.4153 19.6161 21.1946C20.149 20.9738 20.6046 20.6 20.9251 20.1203C21.2455 19.6407 21.4166 19.0768 21.4166 18.4999C21.4166 18.1169 21.3412 17.7376 21.1946 17.3838C21.048 17.0299 20.8332 16.7084 20.5623 16.4375C20.2915 16.1667 19.97 15.9518 19.6161 15.8053C19.2622 15.6587 18.883 15.5832 18.4999 15.5833ZM18.4999 20.5416C18.3846 20.5416 18.2718 20.5074 18.1758 20.4433C18.0799 20.3792 18.0051 20.2881 17.961 20.1815C17.9168 20.0749 17.9053 19.9576 17.9278 19.8445C17.9503 19.7313 18.0058 19.6274 18.0874 19.5458C18.169 19.4642 18.2729 19.4086 18.3861 19.3861C18.4992 19.3636 18.6165 19.3752 18.7231 19.4193C18.8297 19.4635 18.9208 19.5382 18.9849 19.6342C19.049 19.7301 19.0833 19.8429 19.0833 19.9583C19.0833 20.113 19.0218 20.2613 18.9124 20.3707C18.803 20.4801 18.6546 20.5416 18.4999 20.5416ZM19.0833 18.4999C19.0833 18.6546 19.0218 18.803 18.9124 18.9124C18.803 19.0218 18.6546 19.0833 18.4999 19.0833C18.3452 19.0833 18.1969 19.0218 18.0875 18.9124C17.9781 18.803 17.9166 18.6546 17.9166 18.4999V17.0416C17.9166 16.8869 17.9781 16.7385 18.0875 16.6291C18.1969 16.5197 18.3452 16.4583 18.4999 16.4583C18.6546 16.4583 18.803 16.5197 18.9124 16.6291C19.0218 16.7385 19.0833 16.8869 19.0833 17.0416V18.4999Z" fill="#FF3C5F"/>
</g>
<defs>
<clipPath id="clip0_10918_51029">
<rect width="14" height="14" fill="white" transform="translate(8 8)"/>
</clipPath>
</defs>
</svg>
