<svg viewBox="0 0 20 21" fill="none" xmlns="http://www.w3.org/2000/svg">
<rect y="0.5" width="20" height="20" rx="10" fill="#F05D23"/>
<g clip-path="url(#clip0_10746_18489)">
<path d="M8.32709 17.0636C8.25374 17.0637 8.18126 17.0477 8.11476 17.0168C8.04826 16.9858 7.98936 16.9407 7.94219 16.8845C7.89503 16.8284 7.86076 16.7625 7.84179 16.6917C7.82283 16.6208 7.81963 16.5467 7.83242 16.4744V16.4715L8.60009 12.2511H5.62509C5.54245 12.2511 5.46149 12.2277 5.3916 12.1837C5.3217 12.1396 5.26572 12.0766 5.23014 12.002C5.19455 11.9274 5.18082 11.8443 5.19053 11.7622C5.20024 11.6801 5.233 11.6025 5.285 11.5383L11.2776 4.12995C11.3458 4.04333 11.4405 3.98144 11.5472 3.95371C11.6538 3.92599 11.7667 3.93398 11.8684 3.97644C11.9701 4.0189 12.0552 4.09351 12.1105 4.18886C12.1658 4.28421 12.1884 4.39505 12.1748 4.50445C12.1748 4.51261 12.1724 4.52078 12.1713 4.52895L11.4001 8.75111H14.3751C14.4576 8.75118 14.5385 8.7746 14.6082 8.81866C14.678 8.86272 14.7339 8.92562 14.7695 9.0001C14.8051 9.07458 14.8188 9.1576 14.8092 9.23958C14.7996 9.32155 14.767 9.39913 14.7152 9.46336L8.72142 16.8717C8.67437 16.9313 8.61447 16.9795 8.54619 17.0127C8.47792 17.046 8.40302 17.0634 8.32709 17.0636Z" fill="white"/>
</g>
<defs>
<clipPath id="clip0_10746_18489">
<rect width="14" height="14" fill="white" transform="translate(3 3.5)"/>
</clipPath>
</defs>
</svg>
