<svg viewBox="0 0 20 21" fill="none" xmlns="http://www.w3.org/2000/svg">
<rect y="0.5" width="20" height="20" rx="10" fill="#FFBE00"/>
<path d="M15.432 8.13167C15.3509 8.04999 15.2543 7.98525 15.148 7.94118C15.0417 7.89712 14.9276 7.87463 14.8125 7.875H13.0625V7.4375C13.0625 6.62527 12.7398 5.84632 12.1655 5.27199C11.5912 4.69766 10.8122 4.375 10 4.375C9.18777 4.375 8.40882 4.69766 7.83449 5.27199C7.26016 5.84632 6.9375 6.62527 6.9375 7.4375V7.875H5.1875C4.95544 7.875 4.73288 7.96719 4.56878 8.13128C4.40469 8.29538 4.3125 8.51794 4.3125 8.75V14.6562C4.3125 15.7226 5.21492 16.625 6.28125 16.625H13.7188C14.2344 16.625 14.7302 16.4232 15.0989 16.0632C15.2847 15.8861 15.4326 15.6731 15.5338 15.4372C15.6349 15.2013 15.6872 14.9474 15.6875 14.6907V8.75C15.6879 8.63516 15.6655 8.52138 15.6217 8.41525C15.5778 8.30911 15.5133 8.21272 15.432 8.13167ZM7.8125 7.4375C7.8125 6.85734 8.04297 6.30094 8.4532 5.8907C8.86344 5.48047 9.41984 5.25 10 5.25C10.5802 5.25 11.1366 5.48047 11.5468 5.8907C11.957 6.30094 12.1875 6.85734 12.1875 7.4375V7.875H7.8125V7.4375Z" fill="#111111"/>
</svg>
