<svg viewBox="0 0 20 21" fill="none" xmlns="http://www.w3.org/2000/svg">
<rect y="0.5" width="20" height="20" rx="10" fill="#B5A5FF"/>
<path d="M10.0002 4.5769C8.82875 4.5769 7.68359 4.92429 6.70954 5.57512C5.7355 6.22596 4.97632 7.15102 4.52802 8.23332C4.07971 9.31562 3.96242 10.5066 4.19096 11.6555C4.4195 12.8045 4.98362 13.8599 5.81198 14.6882C6.64034 15.5166 7.69573 16.0807 8.84469 16.3092C9.99366 16.5378 11.1846 16.4205 12.2669 15.9722C13.3492 15.5239 14.2742 14.7647 14.9251 13.7907C15.5759 12.8166 15.9233 11.6715 15.9233 10.5C15.9216 8.9296 15.297 7.42403 14.1866 6.31361C13.0762 5.20318 11.5706 4.5786 10.0002 4.5769ZM10.4938 10.4403C10.4939 10.5239 10.4727 10.6062 10.4322 10.6795C10.3917 10.7527 10.3332 10.8144 10.2623 10.8588L8.36694 12.0434C8.31184 12.0779 8.25051 12.1011 8.18643 12.1118C8.12236 12.1225 8.0568 12.1205 7.99351 12.1059C7.93021 12.0913 7.87041 12.0643 7.81753 12.0266C7.76464 11.9889 7.71971 11.9411 7.68529 11.886C7.65087 11.8309 7.62764 11.7695 7.61693 11.7055C7.60621 11.6414 7.60822 11.5758 7.62284 11.5125C7.63747 11.4492 7.66441 11.3895 7.70214 11.3366C7.73987 11.2837 7.78765 11.2388 7.84275 11.2043L9.50664 10.1668V8.03203C9.50664 7.90112 9.55864 7.77558 9.65121 7.68301C9.74377 7.59045 9.86932 7.53844 10.0002 7.53844C10.1311 7.53844 10.2567 7.59045 10.3492 7.68301C10.4418 7.77558 10.4938 7.90112 10.4938 8.03203V10.4403Z" fill="white"/>
</svg>
