<svg viewBox="0 0 20 21" fill="none" xmlns="http://www.w3.org/2000/svg">
<rect y="0.5" width="20" height="20" rx="10" fill="#FFC971"/>
<path d="M11.051 4.5537C10.9784 4.54039 10.9037 4.54314 10.8323 4.56178C10.7609 4.58042 10.6945 4.61448 10.6377 4.66156C10.581 4.70863 10.5353 4.76757 10.504 4.83419C10.4726 4.90082 10.4563 4.97349 10.4563 5.04708V6.49207C9.84658 6.41145 9.22643 6.47186 8.64392 6.66862C8.0614 6.86538 7.53217 7.19321 7.09726 7.62668C6.66235 8.06015 6.33344 8.58763 6.13603 9.16822C5.93862 9.74881 5.878 10.3669 5.9589 10.9746H4.50911C4.43528 10.9747 4.36236 10.9909 4.29552 11.0221C4.22868 11.0534 4.16954 11.0989 4.12231 11.1554C4.07508 11.212 4.0409 11.2782 4.0222 11.3494C4.0035 11.4206 4.00074 11.495 4.0141 11.5674C4.21352 12.6472 4.70532 13.6522 5.43632 14.4737C6.16733 15.2951 7.10972 15.9017 8.16161 16.228C9.21349 16.5542 10.3349 16.5877 11.4044 16.3247C12.474 16.0617 13.4511 15.5123 14.2301 14.7359C15.0091 13.9595 15.5603 12.9857 15.8241 11.9196C16.088 10.8536 16.0544 9.73592 15.7271 8.68751C15.3998 7.6391 14.7911 6.69982 13.9669 5.97123C13.1428 5.24264 12.1345 4.75247 11.051 4.5537ZM9.95273 11.4765C9.77665 11.476 9.60379 11.4294 9.4515 11.3413C9.29922 11.2532 9.17285 11.1268 9.08507 10.9746H7.93844C7.80488 10.9746 7.6768 10.9217 7.58236 10.8276C7.48792 10.7335 7.43487 10.6058 7.43487 10.4727C7.43487 10.3396 7.48792 10.2119 7.58236 10.1178C7.6768 10.0237 7.80488 9.9708 7.93844 9.9708H9.08507C9.17284 9.82044 9.2983 9.69539 9.44915 9.60792V7.96317C9.44915 7.83005 9.50221 7.70239 9.59665 7.60826C9.69109 7.51414 9.81917 7.46126 9.95273 7.46126C10.0863 7.46126 10.2144 7.51414 10.3088 7.60826C10.4032 7.70239 10.4563 7.83005 10.4563 7.96317V9.60792C10.6484 9.7179 10.7986 9.8881 10.8835 10.092C10.9684 10.2959 10.9833 10.5221 10.9259 10.7353C10.8684 10.9486 10.7418 11.1369 10.5658 11.2709C10.3898 11.405 10.1742 11.4773 9.95273 11.4765ZM8.93148 4.5C9.03108 4.5 9.12844 4.52944 9.21125 4.58459C9.29406 4.63974 9.35861 4.71812 9.39672 4.80984C9.43484 4.90155 9.44481 5.00247 9.42538 5.09983C9.40595 5.19719 9.35799 5.28662 9.28756 5.35681C9.21714 5.427 9.12741 5.47481 9.02972 5.49417C8.93204 5.51354 8.83079 5.5036 8.73877 5.46561C8.64676 5.42762 8.56811 5.36329 8.51278 5.28075C8.45744 5.19822 8.42791 5.10118 8.42791 5.00191C8.42791 4.86879 8.48097 4.74113 8.5754 4.64701C8.66984 4.55288 8.79793 4.5 8.93148 4.5ZM6.86684 5.38135C6.96643 5.38135 7.06379 5.41079 7.14661 5.46594C7.22942 5.52109 7.29396 5.59948 7.33208 5.69119C7.37019 5.7829 7.38016 5.88382 7.36073 5.98118C7.3413 6.07854 7.29334 6.16797 7.22292 6.23816C7.15249 6.30835 7.06276 6.35616 6.96508 6.37552C6.8674 6.39489 6.76614 6.38495 6.67413 6.34696C6.58211 6.30897 6.50346 6.24464 6.44813 6.1621C6.3928 6.07957 6.36326 5.98253 6.36326 5.88326C6.363 5.75023 6.41573 5.62254 6.50987 5.52824C6.60401 5.43394 6.73186 5.38075 6.86533 5.38035L6.86684 5.38135ZM5.30929 6.87955C5.40888 6.87955 5.50625 6.90898 5.58906 6.96413C5.67187 7.01928 5.73641 7.09767 5.77453 7.18938C5.81264 7.2811 5.82261 7.38201 5.80318 7.47937C5.78375 7.57673 5.73579 7.66616 5.66537 7.73636C5.59494 7.80655 5.50521 7.85435 5.40753 7.87372C5.30985 7.89309 5.20859 7.88315 5.11658 7.84516C5.02456 7.80717 4.94592 7.74284 4.89058 7.6603C4.83525 7.57776 4.80572 7.48072 4.80572 7.38146C4.80572 7.24834 4.85877 7.12068 4.95321 7.02655C5.04765 6.93243 5.17573 6.87955 5.30929 6.87955ZM4.50357 8.971C4.60317 8.971 4.70053 9.00043 4.78334 9.05559C4.86615 9.11074 4.9307 9.18912 4.96881 9.28083C5.00693 9.37255 5.0169 9.47346 4.99747 9.57082C4.97804 9.66818 4.93008 9.75762 4.85965 9.82781C4.78923 9.898 4.6995 9.94581 4.60181 9.96517C4.50413 9.98454 4.40288 9.9746 4.31086 9.93661C4.21885 9.89862 4.1402 9.83429 4.08487 9.75175C4.02953 9.66921 4 9.57218 4 9.47291C4 9.33997 4.05292 9.21246 4.14714 9.11836C4.24136 9.02426 4.36918 8.97126 4.50257 8.971H4.50357Z" fill="#111111"/>
</svg>
