<svg viewBox="0 0 20 21" fill="none" xmlns="http://www.w3.org/2000/svg">
<rect y="0.5" width="20" height="20" rx="10" fill="#8074C9"/>
<path d="M10 11.375C10.116 11.375 10.2273 11.3289 10.3094 11.2469C10.3914 11.1648 10.4375 11.0535 10.4375 10.9375C10.4375 10.8215 10.3914 10.7102 10.3094 10.6281C10.2273 10.5461 10.116 10.5 10 10.5C9.88397 10.5 9.77269 10.5461 9.69064 10.6281C9.60859 10.7102 9.5625 10.8215 9.5625 10.9375C9.5625 11.0535 9.60859 11.1648 9.69064 11.2469C9.77269 11.3289 9.88397 11.375 10 11.375Z" fill="white"/>
<path d="M10.6563 5.72833V5.46875C10.6563 5.2947 10.5871 5.12778 10.464 5.00471C10.341 4.88164 10.1741 4.8125 10 4.8125C9.82595 4.8125 9.65903 4.88164 9.53596 5.00471C9.41289 5.12778 9.34375 5.2947 9.34375 5.46875V5.72833C8.51496 5.83232 7.7232 6.13358 7.03492 6.60683L6.74617 6.31633C6.62287 6.19303 6.45563 6.12376 6.28125 6.12376C6.10687 6.12376 5.93964 6.19303 5.81634 6.31633C5.69303 6.43964 5.62376 6.60687 5.62376 6.78125C5.62376 6.95563 5.69303 7.12286 5.81634 7.24617L6.05142 7.48125C5.21152 8.43661 4.74882 9.66544 4.75 10.9375C4.75 13.8326 7.10492 16.1875 10 16.1875C12.8951 16.1875 15.25 13.8326 15.25 10.9375C15.25 8.26467 13.2422 6.05208 10.6563 5.72833ZM10 12.25C9.69048 12.2499 9.39096 12.1404 9.15436 11.9408C8.91775 11.7413 8.75928 11.4645 8.70693 11.1595C8.65459 10.8544 8.71174 10.5407 8.8683 10.2736C9.02485 10.0066 9.27073 9.80355 9.5625 9.70025V7.65625C9.5625 7.54022 9.6086 7.42894 9.69064 7.34689C9.77269 7.26484 9.88397 7.21875 10 7.21875C10.116 7.21875 10.2273 7.26484 10.3094 7.34689C10.3914 7.42894 10.4375 7.54022 10.4375 7.65625V9.70025C10.7293 9.80355 10.9752 10.0066 11.1317 10.2736C11.2883 10.5407 11.3454 10.8544 11.2931 11.1595C11.2407 11.4645 11.0823 11.7413 10.8456 11.9408C10.609 12.1404 10.3095 12.2499 10 12.25Z" fill="white"/>
</svg>
