<svg viewBox="0 0 20 21" fill="none" xmlns="http://www.w3.org/2000/svg">
<rect y="0.5" width="20" height="20" rx="10" fill="#FF9000"/>
<path d="M10 4.5C8.4087 4.5 6.88258 5.13214 5.75736 6.25736C4.63214 7.38258 4 8.9087 4 10.5C4 12.0913 4.63214 13.6174 5.75736 14.7426C6.88258 15.8679 8.4087 16.5 10 16.5C11.5913 16.5 13.1174 15.8679 14.2426 14.7426C15.3679 13.6174 16 12.0913 16 10.5C16 8.9087 15.3679 7.38258 14.2426 6.25736C13.1174 5.13214 11.5913 4.5 10 4.5ZM10 15.5769C7.20185 15.5769 4.92308 13.3 4.92308 10.5C4.92069 9.81718 5.0572 9.14102 5.32433 8.51262C5.59145 7.88421 5.9836 7.31671 6.47692 6.84462L10.6634 9.83662L10.1157 10.7018L6.50954 8.07723C6.13415 8.74 5.73969 9.404 5.73969 10.5C5.741 11.6295 6.19027 12.7124 6.98895 13.5111C7.78763 14.3097 8.8705 14.759 10 14.7603C11.1295 14.759 12.2124 14.3097 13.0111 13.5111C13.8097 12.7124 14.259 11.6295 14.2603 10.5C14.2592 9.44113 13.8641 8.42056 13.1521 7.63686C12.44 6.85316 11.4619 6.36237 10.408 6.26V7.84585H9.592V5.42C9.71446 5.42185 9.84985 5.42308 10 5.42308C12.8 5.42308 15.0769 7.70185 15.0769 10.5C15.0769 13.2982 12.8 15.5769 10 15.5769Z" fill="white"/>
</svg>
