<svg viewBox="0 0 20 21" fill="none" xmlns="http://www.w3.org/2000/svg">
<rect y="0.5" width="20" height="20" rx="10" fill="#29B6FF"/>
<path d="M7.05917 13.4202C7.30375 14.8603 4.77917 14.8596 5.02417 13.4202H7.05917ZM14.3333 8.70389C14.2505 8.48665 14.0916 8.29766 13.8792 8.16362C13.6668 8.02958 13.4116 7.95726 13.1496 7.95688H11.6667V10.1422H14.8837L14.3333 8.70389ZM7.94083 13.4202C7.69625 14.8603 10.2208 14.8596 9.97583 13.4202H7.94083ZM9.58333 6.5H6.25C5.91848 6.5 5.60054 6.61512 5.36612 6.82003C5.1317 7.02495 5 7.30287 5 7.59266V12.6917H10.8333V7.59266C10.8333 7.30287 10.7016 7.02495 10.4672 6.82003C10.2328 6.61512 9.91485 6.5 9.58333 6.5ZM15 10.8706H11.6667V12.6917H15V10.8706ZM12.1075 13.4202C11.8629 14.8603 14.3875 14.8596 14.1425 13.4202H12.1075Z" fill="white"/>
</svg>
